<svg version="1.0" xmlns="http://www.w3.org/2000/svg" width="266.667" height="266.667" viewBox="0 0 200 200"><path d="M93.5 25.4C83.4 29.8 81 43.2 88.9 51.1c6.5 6.5 15.7 6.5 22.2 0 12.4-12.4-1.5-32.7-17.6-25.7zM50.3 46c-9.9 6-7.6 22 3.7 25 14.1 3.8 23.5-14.2 12.5-23.9-2.9-2.5-4.4-3.1-8.3-3.1-2.9 0-5.9.8-7.9 2zm90.3 10.9c-.7 1.1 1.8 3.3 2.7 2.4.4-.3.7-1.2.7-2 0-1.5-2.6-1.8-3.4-.4zm-105.1 32c-4.5 2-7 6-7 11.2 0 4.2.5 5.3 3.3 8.1s3.9 3.3 8.2 3.3c4.3 0 5.4-.5 8.2-3.3 2.8-2.8 3.3-3.9 3.3-8.2 0-4.2-.5-5.4-3.1-8.1-3.3-3.3-9.2-4.6-12.9-3zM157 97.5c-2.6 3.2 1.3 8.1 4.8 5.9 3.4-2.2 2.2-7.4-1.8-7.4-1 0-2.3.7-3 1.5zm-103.7 36c-3.8 1.6-5.3 4.2-5.3 9.1 0 8.4 10.4 12.8 16.3 6.9 3.4-3.4 4-6.7 2.3-11-1.1-2.4-2.6-4-5-5-4.2-1.8-4.3-1.8-8.3 0zm85.2 4.9c-2.9 2.9-3.1 4.3-.9 7.4 1.7 2.5 7.1 3.1 9.2 1 1.6-1.6 1.5-7.3 0-8.6-3.1-2.4-5.7-2.3-8.3.2zm-44 16.1c-1.6 1.5-2.5 3.6-2.5 5.5s.9 4 2.5 5.5c4.9 5 13.5 1.5 13.5-5.5 0-4.1-3.9-8-8-8-1.9 0-4 .9-5.5 2.5z" fill="#8d642e"/></svg>