<svg xmlns="http://www.w3.org/2000/svg" width="50" height="57"><defs><filter id="a" width="200%" height="200%" x="-50%" y="-50%"><feGaussianBlur in="SourceGraphic" result="FeGaussianBlur1025Out" stdDeviation="4 4"/></filter><filter id="d" width="200%" height="200%" x="-50%" y="-50%"><feGaussianBlur in="SourceGraphic" result="FeGaussianBlur1047Out" stdDeviation="1.5 1.5"/></filter><filter id="f" width="200%" height="200%" x="-50%" y="-50%"><feGaussianBlur in="SourceGraphic" result="FeGaussianBlur1054Out" stdDeviation="0 0"/></filter><filter id="j" width="200%" height="200%" x="-50%" y="-50%"><feGaussianBlur in="SourceGraphic" result="FeGaussianBlur1100Out" stdDeviation="0 0"/></filter><filter id="l" width="48" height="53" x="1" y="1" filterUnits="userSpaceOnUse"><feOffset dy="5" in="SourceGraphic" result="FeOffset1115Out"/><feGaussianBlur in="FeOffset1115Out" result="FeGaussianBlur1116Out" stdDeviation="1.2 1.2"/></filter><filter id="o" width="200%" height="200%" x="-50%" y="-50%"><feGaussianBlur in="SourceGraphic" result="FeGaussianBlur1137Out" stdDeviation="0 0"/></filter><filter id="q" width="30" height="31" x="10" y="10" filterUnits="userSpaceOnUse"><feOffset dy="-1" in="SourceGraphic" result="FeOffset1152Out"/><feGaussianBlur in="FeOffset1152Out" result="FeGaussianBlur1153Out" stdDeviation="0 0"/></filter><filter id="t" width="200%" height="200%" x="-50%" y="-50%"><feGaussianBlur in="SourceGraphic" result="FeGaussianBlur1174Out" stdDeviation="0 0"/></filter><mask id="b"><path fill="#fff" d="M25 3c12.15 0 22 9.85 22 22s-9.85 22-22 22S3 37.15 3 25 12.85 3 25 3z"/></mask><mask id="e"><path fill="#fff" d="M25 0c13.807 0 25 11.194 25 25 0 13.808-11.193 25-25 25S0 38.808 0 25C0 11.194 11.193 0 25 0zM6 25c0 10.493 8.507 19 19 19s19-8.507 19-19c0-10.494-8.507-19-19-19S6 14.506 6 25z"/></mask><mask id="g"><path fill="#fff" d="M25 0c13.807 0 25 11.194 25 25 0 13.808-11.193 25-25 25S0 38.808 0 25C0 11.194 11.193 0 25 0zM6 25c0 10.493 8.507 19 19 19s19-8.507 19-19c0-10.494-8.507-19-19-19S6 14.506 6 25z"/></mask><mask id="k"><path fill="#fff" d="M24 7h2v3.033a15.222 15.222 0 00-2 0zm4.693.355l1.932.517-.784 2.926a14.89 14.89 0 00-1.932-.516zm4.441 1.556l1.732 1-1.516 2.626c-.552-.37-1.13-.705-1.731-1.001zm3.887 2.654l1.414 1.414-2.145 2.145c-.44-.502-.912-.975-1.414-1.414zm3.067 3.57l1 1.731-2.624 1.515a14.76 14.76 0 00-1.001-1.73zm2.04 4.24l.517 1.932-2.927.785a14.89 14.89 0 00-.516-1.932zM43 24v2h-3.033a15.224 15.224 0 000-2zm-.355 4.693l-.517 1.932-2.926-.784c.213-.627.386-1.272.516-1.932zm-1.557 4.441l-1 1.732-2.625-1.516c.37-.552.705-1.13 1.001-1.73zm-2.653 3.887l-1.414 1.414-2.145-2.145c.502-.44.975-.912 1.414-1.414zm-3.569 3.067l-1.732 1-1.515-2.624a15 15 0 001.731-1.001zm-4.241 2.04l-1.932.518-.785-2.928a14.89 14.89 0 001.933-.516zM26 43h-2v-3.033a15.226 15.226 0 002 0zm-4.693-.354l-1.932-.518.784-2.926a14.89 14.89 0 001.933.516zm-4.44-1.558l-1.733-1 1.516-2.625c.552.37 1.13.705 1.731 1.001zm-3.888-2.653l-1.414-1.414 2.145-2.145c.44.502.912.975 1.414 1.414zm-3.067-3.569l-1-1.732 2.624-1.515c.296.601.63 1.18 1.001 1.731zm-2.04-4.24l-.517-1.933 2.927-.784c.13.66.303 1.305.516 1.932zM7 26v-2h3.033a15.221 15.221 0 000 2zm.355-4.693l.517-1.931 2.926.784a14.889 14.889 0 00-.516 1.932zm1.557-4.44l1-1.733 2.625 1.516c-.37.552-.705 1.13-1.001 1.731zm2.653-3.888l1.414-1.414 2.145 2.145c-.502.44-.975.912-1.414 1.414zm3.569-3.067l1.732-1 1.515 2.624a15 15 0 00-1.731 1.001zm4.241-2.04l1.932-.517.785 2.927c-.661.13-1.306.303-1.933.516z"/></mask><mask id="m" width="2" height="2" x="-1" y="-1"><path fill="#fff" d="M14 14h22v22H14z"/><path d="M33.185 27.218a8.425 8.425 0 01-.83 2l1.691 2.293-2.535 2.535-2.292-1.69a8.426 8.426 0 01-2.001.83L26.793 36h-3.586l-.425-2.814a8.425 8.425 0 01-2-.83l-2.292 1.69-2.536-2.535 1.69-2.293a8.425 8.425 0 01-.83-2L14 26.793v-3.586l2.815-.425a8.43 8.43 0 01.83-2l-1.69-2.292 2.535-2.536 2.292 1.69a8.425 8.425 0 012-.829L23.207 14h3.586l.425 2.815a8.426 8.426 0 012 .83l2.293-1.69 2.535 2.535-1.69 2.292a8.43 8.43 0 01.83 2l2.814.425v3.586zM25 22.044a2.956 2.956 0 100 5.912 2.956 2.956 0 000-5.912z"/></mask><mask id="p"><path fill="#fff" d="M33.185 27.218a8.425 8.425 0 01-.83 2l1.691 2.293-2.535 2.535-2.292-1.69a8.426 8.426 0 01-2.001.83L26.793 36h-3.586l-.425-2.814a8.425 8.425 0 01-2-.83l-2.292 1.69-2.536-2.535 1.69-2.293a8.425 8.425 0 01-.83-2L14 26.793v-3.586l2.815-.425a8.43 8.43 0 01.83-2l-1.69-2.292 2.535-2.536 2.292 1.69a8.425 8.425 0 012-.829L23.207 14h3.586l.425 2.815a8.426 8.426 0 012 .83l2.293-1.69 2.535 2.535-1.69 2.292a8.43 8.43 0 01.83 2l2.814.425v3.586zM25 22.044a2.956 2.956 0 100 5.912 2.956 2.956 0 000-5.912z"/></mask><mask id="r" width="2" height="2" x="-1" y="-1"><path fill="#fff" d="M20 21h10v10H20z"/><path d="M25 21a5 5 0 110 10 5 5 0 010-10zm-2.143 5a2.143 2.143 0 104.285 0 2.143 2.143 0 00-4.285 0z"/></mask><mask id="u"><path fill="#fff" d="M25 21a5 5 0 110 10 5 5 0 010-10zm-2.143 5a2.143 2.143 0 104.285 0 2.143 2.143 0 00-4.285 0z"/></mask><linearGradient id="i" x1="25" x2="25" y1="43" y2="7" gradientUnits="userSpaceOnUse"><stop offset="0" stop-opacity=".33"/><stop offset="1" stop-color="#fff" stop-opacity=".33"/></linearGradient><linearGradient id="n" x1="25" x2="25" y1="36" y2="14" gradientUnits="userSpaceOnUse"><stop offset="0" stop-color="#d6d6d6"/><stop offset="1" stop-color="#ededed"/></linearGradient><linearGradient id="s" x1="25" x2="25" y1="31" y2="21" gradientUnits="userSpaceOnUse"><stop offset="0" stop-color="#f0f0f0"/><stop offset="1" stop-color="#d3d3d3"/></linearGradient><clipPath id="v"><path fill="#fff" d="M25 20a6 6 0 110 12 6 6 0 010-12z"/></clipPath><clipPath id="c"><path d="M25 3c12.15 0 22 9.85 22 22s-9.85 22-22 22S3 37.15 3 25 12.85 3 25 3z"/></clipPath><clipPath id="h"><path d="M25 0c13.807 0 25 11.194 25 25 0 13.808-11.193 25-25 25S0 38.808 0 25C0 11.194 11.193 0 25 0zM6 25c0 10.493 8.507 19 19 19s19-8.507 19-19c0-10.494-8.507-19-19-19S6 14.506 6 25z"/></clipPath></defs><path d="M25 20c10.493 0 19 8.283 19 18.5C44 48.718 35.493 57 25 57S6 48.718 6 38.5C6 28.283 14.507 20 25 20z"/><path fill="#bb9c66" fill-opacity=".45" d="M-5 55V-5h60v60zm8-30c0 12.15 9.85 22 22 22s22-9.85 22-22S37.15 3 25 3 3 12.85 3 25z" filter="url(#a)" mask="url(&quot;#b&quot;)"/><path fill="#1c242a" d="M25 3c12.15 0 22 9.85 22 22s-9.85 22-22 22S3 37.15 3 25 12.85 3 25 3z"/><path fill="#bb9c66" fill-opacity=".45" d="M-5 55V-5h60v60zm8-30c0 12.15 9.85 22 22 22s22-9.85 22-22S37.15 3 25 3 3 12.85 3 25z" filter="url(#a)" mask="url(&quot;#b&quot;)"/><g clip-path="url(#c)"><path fill="#3e4f5b" d="M25 1c6.075 0 11 4.925 11 11s-4.925 11-11 11-11-4.925-11-11S18.925 1 25 1z"/></g><g clip-path="url(#c)"><path fill="#3e4f5b" d="M24 46C10.25 46-.91 34.898-1 21.168 2.113 32.04 12.128 40 24 40s21.888-7.959 25-18.832C48.91 34.898 37.75 46 24 46z"/></g><path fill="#fff" fill-opacity=".75" d="M-3 53V-3h56v56zm3-28c0 13.808 11.193 25 25 25s25-11.192 25-25C50 11.193 38.807 0 25 0S0 11.194 0 25zM25 6c10.493 0 19 8.506 19 19 0 10.493-8.507 19-19 19S6 35.493 6 25C6 14.506 14.507 6 25 6z" filter="url(#d)" mask="url(&quot;#e&quot;)"/><path fill="#bb9c66" d="M25 0c13.807 0 25 11.194 25 25 0 13.808-11.193 25-25 25S0 38.808 0 25C0 11.194 11.193 0 25 0zM6 25c0 10.493 8.507 19 19 19s19-8.507 19-19c0-10.494-8.507-19-19-19S6 14.506 6 25z"/><path fill="#fff" fill-opacity=".75" d="M-3 53V-3h56v56zm3-28c0 13.808 11.193 25 25 25s25-11.192 25-25C50 11.193 38.807 0 25 0S0 11.194 0 25zM25 6c10.493 0 19 8.506 19 19 0 10.493-8.507 19-19 19S6 35.493 6 25C6 14.506 14.507 6 25 6z" filter="url(#d)" mask="url(&quot;#e&quot;)"/><path fill="#c0a16b" d="M0 52V-2h50v54zm0-29c0 13.808 11.193 25 25 25s25-11.192 25-25C50 9.193 38.807-2 25-2S0 9.194 0 23zM25 4c10.493 0 19 8.506 19 19 0 10.493-8.507 19-19 19S6 33.493 6 23C6 12.506 14.507 4 25 4z" filter="url(#f)" mask="url(&quot;#g&quot;)"/><g clip-path="url(#h)" opacity=".82"><path fill="#bb9c66" d="M31 16c1.063-.028 14.66 8 13 15-1.66 7-8.05 14-19 14S7.319 37.765 6 31c-1.319-6.765 3-13 3-13-.165-2.041 20.938-1.972 22-2zM0 0h50v25S46.157 2 25 2 0 25 0 25z"/></g><g clip-path="url(#h)" opacity=".82"><path fill="#bb9c66" d="M9 32s-4.319-6.235-3-13S14.05 5 25 5s17.34 7 19 14c1.66 7-11.937 15.029-13 15-1.062-.028-22.165.041-22-2zm-9-7s3.843 23 25 23 25-23 25-23v25H0z"/></g><path fill="#fff" d="M24.5 2a23.427 23.427 0 0116.65 6.915A24.9 24.9 0 0025 3C15.297 3 6.884 8.528 2.741 16.607 6.247 8.037 14.67 2 24.5 2zm0 44a23.427 23.427 0 01-16.649-6.915A24.9 24.9 0 0024.001 45c9.702 0 18.114-5.528 22.258-13.606C42.753 39.963 34.33 46 24.5 46z"/><g opacity=".57"><path fill="#8194a3" d="M24 7h2v3.033a15.222 15.222 0 00-2 0zm4.693.355l1.932.517-.784 2.926a14.89 14.89 0 00-1.932-.516zm4.441 1.556l1.732 1-1.516 2.626c-.552-.37-1.13-.705-1.731-1.001zm3.887 2.654l1.414 1.414-2.145 2.145c-.44-.502-.912-.975-1.414-1.414zm3.067 3.57l1 1.731-2.624 1.515a14.76 14.76 0 00-1.001-1.73zm2.04 4.24l.517 1.932-2.927.785a14.89 14.89 0 00-.516-1.932zM43 24v2h-3.033a15.224 15.224 0 000-2zm-.355 4.693l-.517 1.932-2.926-.784c.213-.627.386-1.272.516-1.932zm-1.557 4.441l-1 1.732-2.625-1.516c.37-.552.705-1.13 1.001-1.73zm-2.653 3.887l-1.414 1.414-2.145-2.145c.502-.44.975-.912 1.414-1.414zm-3.569 3.067l-1.732 1-1.515-2.624a15 15 0 001.731-1.001zm-4.241 2.04l-1.932.518-.785-2.928a14.89 14.89 0 001.933-.516zM26 43h-2v-3.033a15.226 15.226 0 002 0zm-4.693-.354l-1.932-.518.784-2.926a14.89 14.89 0 001.933.516zm-4.44-1.558l-1.733-1 1.516-2.625c.552.37 1.13.705 1.731 1.001zm-3.888-2.653l-1.414-1.414 2.145-2.145c.44.502.912.975 1.414 1.414zm-3.067-3.569l-1-1.732 2.624-1.515c.296.601.63 1.18 1.001 1.731zm-2.04-4.24l-.517-1.933 2.927-.784c.13.66.303 1.305.516 1.932zM7 26v-2h3.033a15.221 15.221 0 000 2zm.355-4.693l.517-1.931 2.926.784a14.889 14.889 0 00-.516 1.932zm1.557-4.44l1-1.733 2.625 1.516c-.37.552-.705 1.13-1.001 1.731zm2.653-3.888l1.414-1.414 2.145 2.145c-.502.44-.975.912-1.414 1.414zm3.569-3.067l1.732-1 1.515 2.624a15 15 0 00-1.731 1.001zm4.241-2.04l1.932-.517.785 2.927c-.661.13-1.306.303-1.933.516z"/><path fill="url(#i)" d="M24 7h2v3.033a15.222 15.222 0 00-2 0zm4.693.355l1.932.517-.784 2.926a14.89 14.89 0 00-1.932-.516zm4.441 1.556l1.732 1-1.516 2.626c-.552-.37-1.13-.705-1.731-1.001zm3.887 2.654l1.414 1.414-2.145 2.145c-.44-.502-.912-.975-1.414-1.414zm3.067 3.57l1 1.731-2.624 1.515a14.76 14.76 0 00-1.001-1.73zm2.04 4.24l.517 1.932-2.927.785a14.89 14.89 0 00-.516-1.932zM43 24v2h-3.033a15.224 15.224 0 000-2zm-.355 4.693l-.517 1.932-2.926-.784c.213-.627.386-1.272.516-1.932zm-1.557 4.441l-1 1.732-2.625-1.516c.37-.552.705-1.13 1.001-1.73zm-2.653 3.887l-1.414 1.414-2.145-2.145c.502-.44.975-.912 1.414-1.414zm-3.569 3.067l-1.732 1-1.515-2.624a15 15 0 001.731-1.001zm-4.241 2.04l-1.932.518-.785-2.928a14.89 14.89 0 001.933-.516zM26 43h-2v-3.033a15.226 15.226 0 002 0zm-4.693-.354l-1.932-.518.784-2.926a14.89 14.89 0 001.933.516zm-4.44-1.558l-1.733-1 1.516-2.625c.552.37 1.13.705 1.731 1.001zm-3.888-2.653l-1.414-1.414 2.145-2.145c.44.502.912.975 1.414 1.414zm-3.067-3.569l-1-1.732 2.624-1.515c.296.601.63 1.18 1.001 1.731zm-2.04-4.24l-.517-1.933 2.927-.784c.13.66.303 1.305.516 1.932zM7 26v-2h3.033a15.221 15.221 0 000 2zm.355-4.693l.517-1.931 2.926.784a14.889 14.889 0 00-.516 1.932zm1.557-4.44l1-1.733 2.625 1.516c-.37.552-.705 1.13-1.001 1.731zm2.653-3.888l1.414-1.414 2.145 2.145c-.502.44-.975.912-1.414 1.414zm3.569-3.067l1.732-1 1.515 2.624a15 15 0 00-1.731 1.001zm4.241-2.04l1.932-.517.785 2.927c-.661.13-1.306.303-1.933.516z"/><path fill="#d2e2ef" d="M7 44V27h3.033a15.224 15.224 0 010-2H7V6h36v19h-3.033a15.221 15.221 0 010 2H43v17H26v-3.033a15.223 15.223 0 01-2 0V44zm17-32.967a15.226 15.226 0 012 0V8h-2zm3.909.249c.66.13 1.305.303 1.932.516l.784-2.926-1.932-.517zm3.71 1.254a15 15 0 011.731 1.001l1.516-2.625-1.732-1zm3.257 2.174c.502.44.975.912 1.414 1.414l2.145-2.145-1.414-1.414zm2.587 2.94c.37.552.706 1.13 1.001 1.731l2.624-1.515-1-1.732zm1.739 3.51c.213.626.386 1.271.516 1.932l2.927-.785-.517-1.931zM43 27v-2 2zm-3.282 1.909c-.13.66-.303 1.305-.516 1.932l2.926.784.517-1.932zm-1.254 3.71c-.296.601-.63 1.18-1.001 1.731l2.625 1.516 1-1.732zm-2.174 3.257c-.44.502-.912.975-1.414 1.414l2.145 2.145 1.414-1.414zm-2.94 2.587c-.552.37-1.13.705-1.731 1.001l1.515 2.624 1.732-1zm-3.51 1.739a14.89 14.89 0 01-1.932.516l.785 2.928 1.932-.518zM24 44h2-2zm-1.908-3.282a14.89 14.89 0 01-1.933-.516l-.784 2.926 1.932.518zm-3.71-1.254c-.602-.295-1.18-.63-1.732-1.001l-1.516 2.625 1.732 1zm-3.258-2.174c-.502-.44-.975-.912-1.414-1.414l-2.145 2.145 1.414 1.414zm-2.587-2.94c-.37-.552-.705-1.13-1.001-1.73l-2.624 1.514 1 1.732zm-1.739-3.509a14.89 14.89 0 01-.516-1.932l-2.927.784.517 1.932zM7 25.001v2-2zm3.282-1.91c.13-.66.303-1.305.516-1.931l-2.926-.784-.517 1.931zm1.254-3.71c.296-.6.63-1.179 1.001-1.73l-2.625-1.517-1 1.732zm2.174-3.257c.44-.502.912-.974 1.414-1.414l-2.145-2.145-1.414 1.414zm2.94-2.587c.552-.37 1.13-.705 1.731-1.001L16.866 9.91l-1.732 1zm3.51-1.739a14.89 14.89 0 011.932-.516l-.785-2.927-1.932.517z" filter="url(#j)" mask="url(&quot;#k&quot;)"/></g><g filter="url(#l)"><path fill="none" d="M33.185 27.218a8.425 8.425 0 01-.83 2l1.691 2.293-2.535 2.535-2.292-1.69a8.426 8.426 0 01-2.001.83L26.793 36h-3.586l-.425-2.814a8.425 8.425 0 01-2-.83l-2.292 1.69-2.536-2.535 1.69-2.293a8.425 8.425 0 01-.83-2L14 26.793v-3.586l2.815-.425a8.43 8.43 0 01.83-2l-1.69-2.292 2.535-2.536 2.292 1.69a8.425 8.425 0 012-.829L23.207 14h3.586l.425 2.815a8.426 8.426 0 012 .83l2.293-1.69 2.535 2.535-1.69 2.292a8.43 8.43 0 01.83 2l2.814.425v3.586zM25 22.044a2.956 2.956 0 100 5.912 2.956 2.956 0 000-5.912z" mask="url(&quot;#m&quot;)"/><path fill-opacity=".75" d="M33.185 27.218a8.425 8.425 0 01-.83 2l1.691 2.293-2.535 2.535-2.292-1.69a8.426 8.426 0 01-2.001.83L26.793 36h-3.586l-.425-2.814a8.425 8.425 0 01-2-.83l-2.292 1.69-2.536-2.535 1.69-2.293a8.425 8.425 0 01-.83-2L14 26.793v-3.586l2.815-.425a8.43 8.43 0 01.83-2l-1.69-2.292 2.535-2.536 2.292 1.69a8.425 8.425 0 012-.829L23.207 14h3.586l.425 2.815a8.426 8.426 0 012 .83l2.293-1.69 2.535 2.535-1.69 2.292a8.43 8.43 0 01.83 2l2.814.425v3.586zM25 22.044a2.956 2.956 0 100 5.912 2.956 2.956 0 000-5.912z"/></g><path fill="#fff" d="M33.185 27.218a8.425 8.425 0 01-.83 2l1.691 2.293-2.535 2.535-2.292-1.69a8.426 8.426 0 01-2.001.83L26.793 36h-3.586l-.425-2.814a8.425 8.425 0 01-2-.83l-2.292 1.69-2.536-2.535 1.69-2.293a8.425 8.425 0 01-.83-2L14 26.793v-3.586l2.815-.425a8.43 8.43 0 01.83-2l-1.69-2.292 2.535-2.536 2.292 1.69a8.425 8.425 0 012-.829L23.207 14h3.586l.425 2.815a8.426 8.426 0 012 .83l2.293-1.69 2.535 2.535-1.69 2.292a8.43 8.43 0 01.83 2l2.814.425v3.586zM25 22.044a2.956 2.956 0 100 5.912 2.956 2.956 0 000-5.912z"/><path fill="url(#n)" d="M33.185 27.218a8.425 8.425 0 01-.83 2l1.691 2.293-2.535 2.535-2.292-1.69a8.426 8.426 0 01-2.001.83L26.793 36h-3.586l-.425-2.814a8.425 8.425 0 01-2-.83l-2.292 1.69-2.536-2.535 1.69-2.293a8.425 8.425 0 01-.83-2L14 26.793v-3.586l2.815-.425a8.43 8.43 0 01.83-2l-1.69-2.292 2.535-2.536 2.292 1.69a8.425 8.425 0 012-.829L23.207 14h3.586l.425 2.815a8.426 8.426 0 012 .83l2.293-1.69 2.535 2.535-1.69 2.292a8.43 8.43 0 01.83 2l2.814.425v3.586zM25 22.044a2.956 2.956 0 100 5.912 2.956 2.956 0 000-5.912z"/><path fill="#fff" d="M14 37V13h22v11.207l-2.815-.425a8.43 8.43 0 00-.83-2l1.691-2.292-2.535-2.536-2.292 1.69a8.426 8.426 0 00-2.001-.829L26.793 15h-3.586l-.425 2.815a8.425 8.425 0 00-2 .83l-2.292-1.69-2.536 2.535 1.69 2.292a8.43 8.43 0 00-.83 2L14 24.207v3.586l2.815.425a8.35 8.35 0 00.83 2l-1.69 2.293 2.535 2.535 2.292-1.69a8.425 8.425 0 002 .83L23.207 37zm22 0h-9.207l.425-2.814a8.426 8.426 0 002-.83l2.293 1.69 2.535-2.535-1.69-2.293a8.425 8.425 0 00.83-2L36 27.793zm0-9.207v-3.586 3.586zM23.207 37h3.586-3.586zm4.749-11a2.956 2.956 0 11-5.912 0 2.956 2.956 0 015.912 0z" filter="url(#o)" mask="url(&quot;#p&quot;)"/><g filter="url(#q)"><path fill="none" d="M25 21a5 5 0 110 10 5 5 0 010-10zm-2.143 5a2.143 2.143 0 104.285 0 2.143 2.143 0 00-4.285 0z" mask="url(&quot;#r&quot;)"/><path fill="#adadad" d="M25 21a5 5 0 110 10 5 5 0 010-10zm-2.143 5a2.143 2.143 0 104.285 0 2.143 2.143 0 00-4.285 0z"/></g><path fill="#fff" d="M25 21a5 5 0 110 10 5 5 0 010-10zm-2.143 5a2.143 2.143 0 104.285 0 2.143 2.143 0 00-4.285 0z"/><path fill="url(#s)" d="M25 21a5 5 0 110 10 5 5 0 010-10zm-2.143 5a2.143 2.143 0 104.285 0 2.143 2.143 0 00-4.285 0z"/><path fill="#fff" d="M20 32V20h10v12zm0-7a5 5 0 1010 0 5 5 0 00-10 0zm5-2.143a2.143 2.143 0 110 4.286 2.143 2.143 0 010-4.286z" filter="url(#t)" mask="url(&quot;#u&quot;)"/><path fill="none" stroke="#000" stroke-miterlimit="20" stroke-width="2" d="M25 20a6 6 0 110 12 6 6 0 010-12z" clip-path="url(&quot;#v&quot;)" opacity=".26"/></svg>