<svg xmlns="http://www.w3.org/2000/svg" width="50" height="57"><defs><filter id="a" width="200%" height="200%" x="-50%" y="-50%"><feGaussianBlur in="SourceGraphic" result="FeGaussianBlur1025Out" stdDeviation="4 4"/></filter><filter id="d" width="200%" height="200%" x="-50%" y="-50%"><feGaussianBlur in="SourceGraphic" result="FeGaussianBlur1047Out" stdDeviation="1.5 1.5"/></filter><filter id="f" width="200%" height="200%" x="-50%" y="-50%"><feGaussianBlur in="SourceGraphic" result="FeGaussianBlur1054Out" stdDeviation="0 0"/></filter><filter id="i" width="43" height="42" x="-2" y="10" filterUnits="userSpaceOnUse"><feOffset dy="2" in="SourceGraphic" result="FeOffset1089Out"/><feGaussianBlur in="FeOffset1089Out" result="FeGaussianBlur1090Out" stdDeviation="2 2"/></filter><filter id="k" width="52" height="45" x="-1" y="1" filterUnits="userSpaceOnUse"><feOffset dy="2" in="SourceGraphic" result="FeOffset1105Out"/><feGaussianBlur in="FeOffset1105Out" result="FeGaussianBlur1106Out" stdDeviation="2 2"/></filter><filter id="n" width="200%" height="200%" x="-50%" y="-50%"><feGaussianBlur in="SourceGraphic" result="FeGaussianBlur1127Out" stdDeviation="0 0"/></filter><filter id="q" width="200%" height="200%" x="-50%" y="-50%"><feGaussianBlur in="SourceGraphic" result="FeGaussianBlur1153Out" stdDeviation="0 0"/></filter><filter id="t" width="200%" height="200%" x="-50%" y="-50%"><feGaussianBlur in="SourceGraphic" result="FeGaussianBlur1179Out" stdDeviation="0 0"/></filter><mask id="b"><path fill="#fff" d="M25 3c12.15 0 22 9.85 22 22s-9.85 22-22 22S3 37.15 3 25 12.85 3 25 3z"/></mask><mask id="e"><path fill="#fff" d="M25 0c13.807 0 25 11.194 25 25 0 13.808-11.193 25-25 25S0 38.808 0 25C0 11.194 11.193 0 25 0zM6 25c0 10.494 8.507 19 19 19s19-8.506 19-19S35.493 6 25 6 6 14.506 6 25z"/></mask><mask id="g"><path fill="#fff" d="M25 0c13.807 0 25 11.194 25 25 0 13.808-11.193 25-25 25S0 38.808 0 25C0 11.194 11.193 0 25 0zM6 25c0 10.494 8.507 19 19 19s19-8.506 19-19S35.493 6 25 6 6 14.506 6 25z"/></mask><mask id="j" width="2" height="2" x="-1" y="-1"><path fill="#fff" d="M13 25h13v10H13z"/><path d="M25.34 26.331l-.548-.831-11.641 7.791.556.831z"/></mask><mask id="l" width="2" height="2" x="-1" y="-1"><path fill="#fff" d="M14 16h22v13H14z"/><path d="M25 23c.572 0 1.107.16 1.562.438L34 16l2 1-8.128 8.129a3 3 0 11-5.87.781L14 23v-2l8.644 3.143A2.995 2.995 0 0125 23z"/></mask><mask id="o"><path fill="#fff" d="M25 23c.572 0 1.107.16 1.562.438L34 16l2 1-8.128 8.129a3 3 0 11-5.87.781L14 23v-2l8.644 3.143A2.995 2.995 0 0125 23z"/></mask><mask id="r"><path fill="#fff" d="M24 7h2v3.033a15.222 15.222 0 00-2 0zm4.693.355l1.932.517-.784 2.926a14.89 14.89 0 00-1.932-.516zm4.441 1.557l1.732 1-1.516 2.625c-.552-.37-1.13-.705-1.731-1.001zm3.887 2.653l1.414 1.414-2.145 2.145c-.44-.502-.912-.975-1.414-1.414zm3.067 3.569l1 1.732-2.624 1.515a15 15 0 00-1.001-1.731zm2.04 4.242l.517 1.931-2.927.785a14.89 14.89 0 00-.516-1.932zM43 24v2h-3.033a15.224 15.224 0 000-2zm-.355 4.693l-.517 1.932-2.926-.784a15 15 0 00.516-1.932zm-1.557 4.441l-1 1.732-2.625-1.516c.37-.552.705-1.13 1.001-1.73zm-2.653 3.887l-1.414 1.414-2.145-2.145c.502-.44.975-.912 1.414-1.414zm-3.569 3.067l-1.732 1-1.515-2.624c.6-.295 1.179-.63 1.731-1.001zm-4.241 2.04l-1.932.518-.785-2.928a14.89 14.89 0 001.933-.516zM26 43h-2v-3.033a15.226 15.226 0 002 0zm-4.693-.354l-1.932-.518.784-2.926a14.89 14.89 0 001.933.516zm-4.44-1.558l-1.733-1 1.516-2.625c.552.37 1.13.706 1.731 1.001zm-3.888-2.653l-1.414-1.414 2.145-2.145c.44.502.912.975 1.414 1.414zm-3.067-3.569l-1-1.732 2.624-1.515c.296.601.63 1.18 1.001 1.731zm-2.04-4.24l-.517-1.933 2.927-.784c.13.66.303 1.305.516 1.932zM7 26v-2h3.033a15.224 15.224 0 000 2zm.355-4.693l.517-1.931 2.926.784a14.889 14.889 0 00-.516 1.932zm1.557-4.44l1-1.733 2.625 1.516c-.37.552-.705 1.13-1.001 1.731zm2.653-3.888l1.414-1.414 2.145 2.145c-.502.44-.975.912-1.414 1.414zm3.569-3.067l1.732-1 1.515 2.624a15 15 0 00-1.731 1.001zm4.241-2.04l1.932-.517.785 2.927c-.661.13-1.306.303-1.933.516z"/></mask><mask id="u"><path fill="#fff" d="M24 7h2v3h-2zm0 33h2v3h-2zM7 26v-2h3v2zm33 0v-2h3v2z"/></mask><linearGradient id="m" x1="25" x2="25" y1="29" y2="16" gradientUnits="userSpaceOnUse"><stop offset="0" stop-color="#c6c9c9"/><stop offset="1" stop-color="#fff"/></linearGradient><linearGradient id="p" x1="25" x2="25" y1="43" y2="7" gradientUnits="userSpaceOnUse"><stop offset="0" stop-opacity=".33"/><stop offset="1" stop-color="#fff" stop-opacity=".33"/></linearGradient><linearGradient id="s" x1="25" x2="25" y1="43" y2="7" gradientUnits="userSpaceOnUse"><stop offset="0" stop-opacity=".19"/><stop offset="1" stop-color="#fff" stop-opacity=".19"/></linearGradient><clipPath id="v"><path fill="#fff" d="M25 32a3 3 0 110 6 3 3 0 010-6zm5 3v-1h3v1zm-13 0v-1h3v1zm5-18v-1h6v1z"/></clipPath><clipPath id="h"><path d="M25 0c13.807 0 25 11.194 25 25 0 13.808-11.193 25-25 25S0 38.808 0 25C0 11.194 11.193 0 25 0zM6 25c0 10.494 8.507 19 19 19s19-8.506 19-19S35.493 6 25 6 6 14.506 6 25z"/></clipPath><clipPath id="c"><path d="M25 3c12.15 0 22 9.85 22 22s-9.85 22-22 22S3 37.15 3 25 12.85 3 25 3z"/></clipPath></defs><path fill="#bb9c66" d="M25 20c10.493 0 19 8.283 19 18.5C44 48.718 35.493 57 25 57S6 48.718 6 38.5C6 28.283 14.507 20 25 20z"/><path fill="#bb9c66" fill-opacity=".45" d="M-5 55V-5h60v60zm8-30c0 12.15 9.85 22 22 22s22-9.85 22-22S37.15 3 25 3 3 12.85 3 25z" filter="url(#a)" mask="url(&quot;#b&quot;)"/><path fill="#1c242a" d="M25 3c12.15 0 22 9.85 22 22s-9.85 22-22 22S3 37.15 3 25 12.85 3 25 3z"/><path fill="#bb9c66" fill-opacity=".45" d="M-5 55V-5h60v60zm8-30c0 12.15 9.85 22 22 22s22-9.85 22-22S37.15 3 25 3 3 12.85 3 25z" filter="url(#a)" mask="url(&quot;#b&quot;)"/><g clip-path="url(#c)"><path fill="#3e4f5b" d="M25 1c6.075 0 11 4.925 11 11s-4.925 11-11 11-11-4.925-11-11S18.925 1 25 1z"/></g><g clip-path="url(#c)"><path fill="#3e4f5b" d="M24 46C10.25 46-.91 34.898-1 21.168 2.113 32.04 12.128 40 24 40s21.888-7.959 25-18.832C48.91 34.898 37.75 46 24 46z"/></g><path fill="#fff" fill-opacity=".75" d="M-3 53V-3h56v56zm3-28c0 13.808 11.193 25 25 25s25-11.192 25-25C50 11.194 38.807 0 25 0S0 11.194 0 25zM25 6c10.493 0 19 8.506 19 19s-8.507 19-19 19S6 35.494 6 25 14.507 6 25 6z" filter="url(#d)" mask="url(&quot;#e&quot;)"/><path fill="#bb9c66" d="M25 0c13.807 0 25 11.194 25 25 0 13.808-11.193 25-25 25S0 38.808 0 25C0 11.194 11.193 0 25 0zM6 25c0 10.494 8.507 19 19 19s19-8.506 19-19S35.493 6 25 6 6 14.506 6 25z"/><path fill="#fff" fill-opacity=".75" d="M-3 53V-3h56v56zm3-28c0 13.808 11.193 25 25 25s25-11.192 25-25C50 11.194 38.807 0 25 0S0 11.194 0 25zM25 6c10.493 0 19 8.506 19 19s-8.507 19-19 19S6 35.494 6 25 14.507 6 25 6z" filter="url(#d)" mask="url(&quot;#e&quot;)"/><path fill="#c0a16b" d="M0 52V-2h50v54zm0-29c0 13.808 11.193 25 25 25s25-11.192 25-25C50 9.194 38.807-2 25-2S0 9.194 0 23zM25 4c10.493 0 19 8.506 19 19s-8.507 19-19 19S6 33.494 6 23 14.507 4 25 4z" filter="url(#f)" mask="url(&quot;#g&quot;)"/><g clip-path="url(#h)" opacity=".82"><path fill="#bb9c66" d="M31 16c1.063-.028 14.66 8 13 15-1.66 7-8.05 14-19 14S7.319 37.765 6 31c-1.319-6.765 3-13 3-13-.165-2.041 20.938-1.972 22-2zM0 0h50v25S46.157 2 25 2 0 25 0 25z"/></g><g clip-path="url(#h)" opacity=".82"><path fill="#bb9c66" d="M9 32s-4.319-6.235-3-13S14.05 5 25 5s17.34 7 19 14c1.66 7-11.937 15.029-13 15-1.062-.028-22.165.041-22-2zm-9-7s3.843 23 25 23 25-23 25-23v25H0z"/></g><path fill="#fff" d="M24.5 2a23.427 23.427 0 0116.65 6.915A24.9 24.9 0 0025 3C15.297 3 6.884 8.528 2.741 16.607 6.247 8.037 14.67 2 24.5 2zm0 44a23.427 23.427 0 01-16.649-6.915A24.9 24.9 0 0024.001 45c9.702 0 18.114-5.528 22.258-13.606C42.753 39.963 34.33 46 24.5 46z"/><g filter="url(#i)"><path fill="none" d="M25.34 26.331l-.548-.831-11.641 7.791.556.831z" mask="url(&quot;#j&quot;)"/><path d="M25.34 26.331l-.548-.831-11.641 7.791.556.831z"/></g><path fill="#b6ccde" d="M25.34 26.331l-.548-.831-11.641 7.791.556.831z"/><g filter="url(#k)"><path fill="none" d="M25 23c.572 0 1.107.16 1.562.438L34 16l2 1-8.128 8.129a3 3 0 11-5.87.781L14 23v-2l8.644 3.143A2.995 2.995 0 0125 23z" mask="url(&quot;#l&quot;)"/><path d="M25 23c.572 0 1.107.16 1.562.438L34 16l2 1-8.128 8.129a3 3 0 11-5.87.781L14 23v-2l8.644 3.143A2.995 2.995 0 0125 23z"/></g><path fill="#fff" d="M25 23c.572 0 1.107.16 1.562.438L34 16l2 1-8.128 8.129a3 3 0 11-5.87.781L14 23v-2l8.644 3.143A2.995 2.995 0 0125 23z"/><path fill="url(#m)" d="M25 23c.572 0 1.107.16 1.562.438L34 16l2 1-8.128 8.129a3 3 0 11-5.87.781L14 23v-2l8.644 3.143A2.995 2.995 0 0125 23z"/><path fill="#65727c" fill-opacity=".75" d="M14 30V15h22v1l-2-1-7.438 7.438A2.986 2.986 0 0025 22c-.956 0-1.807.447-2.356 1.143L14 20v2l8.001 2.91L22 25a3 3 0 105.872-.871L36 16v14zm22-14z" filter="url(#n)" mask="url(&quot;#o&quot;)"/><g opacity=".57"><path fill="#8194a3" d="M24 7h2v3.033a15.222 15.222 0 00-2 0zm4.693.355l1.932.517-.784 2.926a14.89 14.89 0 00-1.932-.516zm4.441 1.557l1.732 1-1.516 2.625c-.552-.37-1.13-.705-1.731-1.001zm3.887 2.653l1.414 1.414-2.145 2.145c-.44-.502-.912-.975-1.414-1.414zm3.067 3.569l1 1.732-2.624 1.515a15 15 0 00-1.001-1.731zm2.04 4.242l.517 1.931-2.927.785a14.89 14.89 0 00-.516-1.932zM43 24v2h-3.033a15.224 15.224 0 000-2zm-.355 4.693l-.517 1.932-2.926-.784a15 15 0 00.516-1.932zm-1.557 4.441l-1 1.732-2.625-1.516c.37-.552.705-1.13 1.001-1.73zm-2.653 3.887l-1.414 1.414-2.145-2.145c.502-.44.975-.912 1.414-1.414zm-3.569 3.067l-1.732 1-1.515-2.624c.6-.295 1.179-.63 1.731-1.001zm-4.241 2.04l-1.932.518-.785-2.928a14.89 14.89 0 001.933-.516zM26 43h-2v-3.033a15.226 15.226 0 002 0zm-4.693-.354l-1.932-.518.784-2.926a14.89 14.89 0 001.933.516zm-4.44-1.558l-1.733-1 1.516-2.625c.552.37 1.13.706 1.731 1.001zm-3.888-2.653l-1.414-1.414 2.145-2.145c.44.502.912.975 1.414 1.414zm-3.067-3.569l-1-1.732 2.624-1.515c.296.601.63 1.18 1.001 1.731zm-2.04-4.24l-.517-1.933 2.927-.784c.13.66.303 1.305.516 1.932zM7 26v-2h3.033a15.224 15.224 0 000 2zm.355-4.693l.517-1.931 2.926.784a14.889 14.889 0 00-.516 1.932zm1.557-4.44l1-1.733 2.625 1.516c-.37.552-.705 1.13-1.001 1.731zm2.653-3.888l1.414-1.414 2.145 2.145c-.502.44-.975.912-1.414 1.414zm3.569-3.067l1.732-1 1.515 2.624a15 15 0 00-1.731 1.001zm4.241-2.04l1.932-.517.785 2.927c-.661.13-1.306.303-1.933.516z"/><path fill="url(#p)" d="M24 7h2v3.033a15.222 15.222 0 00-2 0zm4.693.355l1.932.517-.784 2.926a14.89 14.89 0 00-1.932-.516zm4.441 1.557l1.732 1-1.516 2.625c-.552-.37-1.13-.705-1.731-1.001zm3.887 2.653l1.414 1.414-2.145 2.145c-.44-.502-.912-.975-1.414-1.414zm3.067 3.569l1 1.732-2.624 1.515a15 15 0 00-1.001-1.731zm2.04 4.242l.517 1.931-2.927.785a14.89 14.89 0 00-.516-1.932zM43 24v2h-3.033a15.224 15.224 0 000-2zm-.355 4.693l-.517 1.932-2.926-.784a15 15 0 00.516-1.932zm-1.557 4.441l-1 1.732-2.625-1.516c.37-.552.705-1.13 1.001-1.73zm-2.653 3.887l-1.414 1.414-2.145-2.145c.502-.44.975-.912 1.414-1.414zm-3.569 3.067l-1.732 1-1.515-2.624c.6-.295 1.179-.63 1.731-1.001zm-4.241 2.04l-1.932.518-.785-2.928a14.89 14.89 0 001.933-.516zM26 43h-2v-3.033a15.226 15.226 0 002 0zm-4.693-.354l-1.932-.518.784-2.926a14.89 14.89 0 001.933.516zm-4.44-1.558l-1.733-1 1.516-2.625c.552.37 1.13.706 1.731 1.001zm-3.888-2.653l-1.414-1.414 2.145-2.145c.44.502.912.975 1.414 1.414zm-3.067-3.569l-1-1.732 2.624-1.515c.296.601.63 1.18 1.001 1.731zm-2.04-4.24l-.517-1.933 2.927-.784c.13.66.303 1.305.516 1.932zM7 26v-2h3.033a15.224 15.224 0 000 2zm.355-4.693l.517-1.931 2.926.784a14.889 14.889 0 00-.516 1.932zm1.557-4.44l1-1.733 2.625 1.516c-.37.552-.705 1.13-1.001 1.731zm2.653-3.888l1.414-1.414 2.145 2.145c-.502.44-.975.912-1.414 1.414zm3.569-3.067l1.732-1 1.515 2.624a15 15 0 00-1.731 1.001zm4.241-2.04l1.932-.517.785 2.927c-.661.13-1.306.303-1.933.516z"/><path fill="#d2e2ef" d="M7 44V27h3.033a15.224 15.224 0 010-2H7V6h36v19h-3.033a15.224 15.224 0 010 2H43v17H26v-3.033a15.223 15.223 0 01-2 0V44zm17-32.967a15.226 15.226 0 012 0V8h-2zm3.909.249c.66.13 1.305.303 1.932.516l.784-2.926-1.932-.517zm3.71 1.254a15 15 0 011.731 1.001l1.516-2.625-1.732-1zm3.257 2.174c.502.44.975.912 1.414 1.414l2.145-2.145-1.414-1.414zm2.587 2.94c.37.552.705 1.13 1.001 1.731l2.624-1.515-1-1.732zm1.739 3.51c.213.626.386 1.271.516 1.932l2.927-.785-.517-1.931zM43 27v-2 2zm-3.282 1.909a15 15 0 01-.516 1.932l2.926.784.517-1.932zm-1.254 3.71c-.296.601-.63 1.18-1.001 1.731l2.625 1.516 1-1.732zm-2.174 3.257c-.44.502-.912.975-1.414 1.414l2.145 2.145 1.414-1.414zm-2.94 2.587c-.552.37-1.13.706-1.731 1.001l1.515 2.625 1.732-1zm-3.51 1.739a14.89 14.89 0 01-1.932.516l.785 2.928 1.932-.518zM24 44h2-2zm-1.908-3.282a14.89 14.89 0 01-1.933-.516l-.784 2.926 1.932.518zm-3.71-1.254c-.602-.295-1.18-.63-1.732-1.001l-1.516 2.625 1.732 1zm-3.258-2.174c-.502-.44-.975-.912-1.414-1.414l-2.145 2.145 1.414 1.414zm-2.587-2.94c-.37-.552-.705-1.13-1.001-1.73l-2.624 1.514 1 1.732zm-1.739-3.509a14.89 14.89 0 01-.516-1.932l-2.927.784.517 1.932zM7 25.001v2-2zm3.282-1.91c.13-.66.303-1.305.516-1.931l-2.926-.784-.517 1.931zm1.254-3.71a15 15 0 011.001-1.731l-2.625-1.516-1 1.732zm2.174-3.257c.44-.502.912-.974 1.414-1.414l-2.145-2.145-1.414 1.414zm2.94-2.587c.552-.37 1.13-.705 1.731-1.001l-1.515-2.624-1.732 1zm3.51-1.739a14.89 14.89 0 011.932-.516l-.785-2.927-1.932.517z" filter="url(#q)" mask="url(&quot;#r&quot;)"/></g><path fill="#bb9c66" d="M24 7h2v3h-2zm0 33h2v3h-2zM7 26v-2h3v2zm33 0v-2h3v2z"/><path fill="url(#s)" d="M24 7h2v3h-2zm0 33h2v3h-2zM7 26v-2h3v2zm33 0v-2h3v2z"/><path fill="#d7c4a3" fill-opacity=".32" d="M7 44V27h3v-2H7V6h36v19h-3v2h3v17H26v-3h-2v3zm17-33h2V8h-2zm0 33h2-2zM7 25v2-2zm36 2v-2 2z" filter="url(#t)" mask="url(&quot;#u&quot;)"/><path fill="none" stroke="#bb9c66" stroke-miterlimit="20" stroke-width="2" d="M25 32a3 3 0 110 6 3 3 0 010-6zm5 3v-1h3v1zm-13 0v-1h3v1zm5-18v-1h6v1z" clip-path="url(&quot;#v&quot;)"/></svg>