<svg xmlns="http://www.w3.org/2000/svg" width="28" height="30"><defs><filter id="a" width="48" height="53" x="-10" y="-13" filterUnits="userSpaceOnUse"><feOffset dy="5" in="SourceGraphic" result="FeOffset1200Out"/><feGaussianBlur in="FeOffset1200Out" result="FeGaussianBlur1201Out" stdDeviation="1.2 1.2"/></filter><filter id="d" width="200%" height="200%" x="-50%" y="-50%"><feGaussianBlur in="SourceGraphic" result="FeGaussianBlur1222Out" stdDeviation="0 0"/></filter><mask id="b" width="2" height="2" x="-1" y="-1"><path fill="#fff" d="M3 0h22v22H3z"/><path d="M22.185 13.218a8.425 8.425 0 01-.83 2l1.691 2.293-2.535 2.535-2.292-1.69a8.426 8.426 0 01-2.001.83L15.793 22h-3.586l-.425-2.814a8.425 8.425 0 01-2-.83l-2.292 1.69-2.536-2.535 1.69-2.293a8.425 8.425 0 01-.83-2L3 12.793V9.207l2.815-.425a8.43 8.43 0 01.83-2L4.955 4.49 7.49 1.954l2.292 1.69a8.425 8.425 0 012-.829L12.207 0h3.586l.425 2.815a8.426 8.426 0 012 .83l2.293-1.69 2.535 2.535-1.69 2.292a8.43 8.43 0 01.83 2L25 9.207v3.586zM14 8.044a2.956 2.956 0 100 5.912 2.956 2.956 0 000-5.912z"/></mask><mask id="e"><path fill="#fff" d="M22.185 13.218a8.425 8.425 0 01-.83 2l1.691 2.293-2.535 2.535-2.292-1.69a8.426 8.426 0 01-2.001.83L15.793 22h-3.586l-.425-2.814a8.425 8.425 0 01-2-.83l-2.292 1.69-2.536-2.535 1.69-2.293a8.425 8.425 0 01-.83-2L3 12.793V9.207l2.815-.425a8.43 8.43 0 01.83-2L4.955 4.49 7.49 1.954l2.292 1.69a8.425 8.425 0 012-.829L12.207 0h3.586l.425 2.815a8.426 8.426 0 012 .83l2.293-1.69 2.535 2.535-1.69 2.292a8.43 8.43 0 01.83 2L25 9.207v3.586zM14 8.044a2.956 2.956 0 100 5.912 2.956 2.956 0 000-5.912z"/></mask><linearGradient id="c" x1="14" x2="14" y1="22" y2="0" gradientUnits="userSpaceOnUse"><stop offset="0" stop-color="#d6d6d6"/><stop offset="1" stop-color="#ededed"/></linearGradient></defs><g filter="url(#a)"><path fill="none" d="M22.185 13.218a8.425 8.425 0 01-.83 2l1.691 2.293-2.535 2.535-2.292-1.69a8.426 8.426 0 01-2.001.83L15.793 22h-3.586l-.425-2.814a8.425 8.425 0 01-2-.83l-2.292 1.69-2.536-2.535 1.69-2.293a8.425 8.425 0 01-.83-2L3 12.793V9.207l2.815-.425a8.43 8.43 0 01.83-2L4.955 4.49 7.49 1.954l2.292 1.69a8.425 8.425 0 012-.829L12.207 0h3.586l.425 2.815a8.426 8.426 0 012 .83l2.293-1.69 2.535 2.535-1.69 2.292a8.43 8.43 0 01.83 2L25 9.207v3.586zM14 8.044a2.956 2.956 0 100 5.912 2.956 2.956 0 000-5.912z" mask="url(&quot;#b&quot;)"/><path fill-opacity=".75" d="M22.185 13.218a8.425 8.425 0 01-.83 2l1.691 2.293-2.535 2.535-2.292-1.69a8.426 8.426 0 01-2.001.83L15.793 22h-3.586l-.425-2.814a8.425 8.425 0 01-2-.83l-2.292 1.69-2.536-2.535 1.69-2.293a8.425 8.425 0 01-.83-2L3 12.793V9.207l2.815-.425a8.43 8.43 0 01.83-2L4.955 4.49 7.49 1.954l2.292 1.69a8.425 8.425 0 012-.829L12.207 0h3.586l.425 2.815a8.426 8.426 0 012 .83l2.293-1.69 2.535 2.535-1.69 2.292a8.43 8.43 0 01.83 2L25 9.207v3.586zM14 8.044a2.956 2.956 0 100 5.912 2.956 2.956 0 000-5.912z"/></g><path fill="#fff" d="M22.185 13.218a8.425 8.425 0 01-.83 2l1.691 2.293-2.535 2.535-2.292-1.69a8.426 8.426 0 01-2.001.83L15.793 22h-3.586l-.425-2.814a8.425 8.425 0 01-2-.83l-2.292 1.69-2.536-2.535 1.69-2.293a8.425 8.425 0 01-.83-2L3 12.793V9.207l2.815-.425a8.43 8.43 0 01.83-2L4.955 4.49 7.49 1.954l2.292 1.69a8.425 8.425 0 012-.829L12.207 0h3.586l.425 2.815a8.426 8.426 0 012 .83l2.293-1.69 2.535 2.535-1.69 2.292a8.43 8.43 0 01.83 2L25 9.207v3.586zM14 8.044a2.956 2.956 0 100 5.912 2.956 2.956 0 000-5.912z"/><path fill="url(#c)" d="M22.185 13.218a8.425 8.425 0 01-.83 2l1.691 2.293-2.535 2.535-2.292-1.69a8.426 8.426 0 01-2.001.83L15.793 22h-3.586l-.425-2.814a8.425 8.425 0 01-2-.83l-2.292 1.69-2.536-2.535 1.69-2.293a8.425 8.425 0 01-.83-2L3 12.793V9.207l2.815-.425a8.43 8.43 0 01.83-2L4.955 4.49 7.49 1.954l2.292 1.69a8.425 8.425 0 012-.829L12.207 0h3.586l.425 2.815a8.426 8.426 0 012 .83l2.293-1.69 2.535 2.535-1.69 2.292a8.43 8.43 0 01.83 2L25 9.207v3.586zM14 8.044a2.956 2.956 0 100 5.912 2.956 2.956 0 000-5.912z"/><path fill="#fff" d="M3 23V-1h22v11.207l-2.815-.425a8.43 8.43 0 00-.83-2l1.691-2.292-2.535-2.536-2.292 1.69a8.426 8.426 0 00-2.001-.829L15.793 1h-3.586l-.425 2.815a8.425 8.425 0 00-2 .83L7.49 2.955 4.954 5.49l1.69 2.292a8.43 8.43 0 00-.83 2L3 10.207v3.586l2.815.425a8.35 8.35 0 00.83 2l-1.69 2.293 2.535 2.535 2.292-1.69a8.425 8.425 0 002 .83L12.207 23zm22 0h-9.207l.425-2.814a8.426 8.426 0 002-.83l2.293 1.69 2.535-2.535-1.69-2.293a8.425 8.425 0 00.83-2L25 13.793zm0-9.207v-3.586 3.586zM12.207 23h3.586-3.586zm4.749-11a2.956 2.956 0 11-5.912 0 2.956 2.956 0 015.912 0z" filter="url(#d)" mask="url(&quot;#e&quot;)"/></svg>